# xmcd
#
# Track frame offsets:
# 150
# 17244
# 37012
# 52494
# 72113
# 90300
# 105802
# 123695
# 139548
# 156668
# 169802
# 186762
#
# Disc length: 2787 seconds
#
#
# Revision: 0
# Processed by: cddbd v1.4PL0 Copyright (c) Steve Scherf et al.
# Submitted via: FreeRIP 2.20 
#
DISCID=a60ae10c
DTITLE=Dove Awards GMA - Smash Hits for Kids 1
DYEAR=1900
DGENRE=Contemporary Christian
TTITLE0=Testify to Love
TTITLE1=God is in Control
TTITLE2=Luv is a Verb
TTITLE3=The Great Adventure
TTITLE4=In the Name of the Lord
TTITLE5=If We Ever
TTITLE6=His Strength Is Perfect
TTITLE7=The Potters House
TTITLE8=More Than Wonderful
TTITLE9=Tis So Ssweet to Trust In Jesus
TTITLE10=Satisfied
TTITLE11=Friend Of A Wounded Hart
EXTD=
EXTT0=
EXTT1=
EXTT2=
EXTT3=
EXTT4=
EXTT5=
EXTT6=
EXTT7=
EXTT8=
EXTT9=
EXTT10=
EXTT11=
PLAYORDER=
